<svg xmlns="http://www.w3.org/2000/svg" width="512" height="512" viewBox="0 0 512 512">
  <defs>
    <linearGradient id="bg" x1="0" x2="1" y1="0" y2="1">
      <stop offset="0%" stop-color="#2b5876"/>
      <stop offset="100%" stop-color="#08121c"/>
    </linearGradient>
    <linearGradient id="accent" x1="0" x2="1" y1="0" y2="1">
      <stop offset="0%" stop-color="#ffcf71"/>
      <stop offset="100%" stop-color="#ff8c42"/>
    </linearGradient>
  </defs>
  <rect width="512" height="512" rx="112" fill="url(#bg)"/>
  <rect x="96" y="86" width="320" height="94" rx="28" fill="#eef6ff" opacity="0.95"/>
  <g fill="#dfefff" opacity="0.18">
    <rect x="96" y="212" width="70" height="70" rx="22"/>
    <rect x="184" y="212" width="70" height="70" rx="22"/>
    <rect x="272" y="212" width="70" height="70" rx="22"/>
    <rect x="96" y="300" width="70" height="70" rx="22"/>
    <rect x="184" y="300" width="70" height="70" rx="22"/>
    <rect x="272" y="300" width="70" height="70" rx="22"/>
  </g>
  <rect x="360" y="212" width="56" height="158" rx="24" fill="url(#accent)"/>
  <path d="M142 134h128" stroke="#15304a" stroke-width="20" stroke-linecap="round"/>
  <path d="M314 118v32M298 134h32" stroke="#15304a" stroke-width="18" stroke-linecap="round"/>
  <path d="M348 118l24 32M372 118l-24 32" stroke="#15304a" stroke-width="16" stroke-linecap="round"/>
</svg>
